<svg width="32" height="32" viewBox="0 0 32 32" fill="none" xmlns="http://www.w3.org/2000/svg">
<g clip-path="url(#clip0_1301_2)">
<path d="M31.8482 13.7965C30.7746 6.00288 24.0888 0 16 0C7.1635 0 0 7.1635 0 16C0 23.4466 5.08731 29.7048 11.9759 31.4894L31.8482 13.7965Z" fill="#C6402D"/>
<path d="M32 16C32 15.2523 31.9476 14.5169 31.8483 13.7965L27.8257 9.77394L24.9707 12.6289L18.9854 6.64363L2.78226 22.2957L11.9759 31.4894C13.2617 31.8224 14.6101 32 16 32C24.8365 32 32 24.8365 32 16Z" fill="#692811"/>
<path d="M16.8 9.13112H15.2V10.4744H16.8V9.13112Z" fill="#63842C"/>
<path d="M17.1386 7.78237L16 9.62906C16.7673 9.94312 17.8857 9.73356 18.4878 9.13156C19.0898 8.52956 19.2995 7.411 18.9854 6.64375L17.1386 7.78237Z" fill="#63842C"/>
<path d="M16.4976 7.14131C15.8956 7.74331 15.6859 8.86187 16 9.62919L18.9854 6.64381C18.2181 6.32962 17.0996 6.53925 16.4976 7.14131Z" fill="#81982D"/>
<path d="M14.8614 7.78237L16 9.62906C15.2327 9.94312 14.1142 9.73356 13.5122 9.13156C12.9102 8.52956 12.7005 7.411 13.0147 6.64375L14.8614 7.78237Z" fill="#81982D"/>
<path d="M15.5024 7.14131C16.1044 7.74331 16.3141 8.86188 16 9.62919L13.0146 6.64375C13.7818 6.32963 14.9004 6.53925 15.5024 7.14131Z" fill="#A0AD2F"/>
<path d="M15.9996 9.774L14.6084 12.5566L27.8257 11.1653V9.774H15.9996Z" fill="#FFF3AD"/>
<path d="M4.17355 9.774V11.1653L15.9996 12.5566V9.774H4.17355Z" fill="white"/>
<path d="M15.9996 11.1653L14.6084 13.9479L27.8257 12.5566V11.1653H15.9996Z" fill="#FFD23E"/>
<path d="M4.17355 11.1653V12.5566L15.9996 13.9479V11.1653H4.17355Z" fill="#FFE376"/>
<path d="M15.9996 12.5566L14.6084 16.7305L27.8257 15.3392V12.5566H23.6518L22.9562 13.2523L22.2605 12.5566H15.9996Z" fill="#F8513A"/>
<path d="M26.4348 13.9478H25.0435V16.0347H26.4348V13.9478Z" fill="#F72E12"/>
<path d="M22.2609 13.9478H20.8696V16.0347H22.2609V13.9478Z" fill="#F72E12"/>
<path d="M4.17355 12.5566V15.3392L15.9996 16.7305V12.5566H4.17355Z" fill="#FA7461"/>
<path d="M15.9996 15.3392L14.6084 18.1218L27.8257 16.7305V15.3392H15.9996Z" fill="#FFD23E"/>
<path d="M4.17355 15.3392V16.7305L15.9996 18.1218V15.3392H4.17355Z" fill="#FFE376"/>
<path d="M15.9996 16.7305L14.6084 20.9044L27.8257 19.5131V16.7305H15.9996Z" fill="#F8513A"/>
<path d="M26.4348 18.1217H25.0435V20.2087H26.4348V18.1217Z" fill="#F72E12"/>
<path d="M19.4783 18.1217H18.0869V20.2087H19.4783V18.1217Z" fill="#F72E12"/>
<path d="M4.17355 16.7305V19.5131L15.9996 20.9044V16.7305H6.95618L6.26049 17.4262L5.56487 16.7305H4.17355Z" fill="#FA7461"/>
<path d="M6.95619 16.7304H5.56488V18.1217H6.95619V16.7304Z" fill="#F8513A"/>
<path d="M8.34783 18.1217H6.95651V20.2087H8.34783V18.1217Z" fill="#F8513A"/>
<path d="M11.1304 18.1217H9.73914V20.2087H11.1304V18.1217Z" fill="#F8513A"/>
<path d="M15.9996 19.5131L14.6084 22.2957L27.8257 20.9044V19.5131H15.9996Z" fill="#FFD23E"/>
<path d="M4.17355 19.5131V20.9044L15.9996 22.2957V19.5131H4.17355Z" fill="#FFE376"/>
<path d="M27.1301 22.2957L25.7388 24.7305H15.9996L14.6431 21.6001L27.1301 22.2957Z" fill="#FFE376"/>
<path d="M6.26051 24.7305H15.9996V21.6001L4.8692 22.2957L6.26051 24.7305Z" fill="#FFF3AD"/>
<path d="M29.2171 20.9044V22.2957H15.9997L15.3127 21.6001L15.9997 20.9044H29.2171Z" fill="#FFF3AD"/>
<path d="M15.9996 20.9044H2.78226V22.2957H15.9996V20.9044Z" fill="white"/>
<path d="M17.3909 10.8174V15.687C17.3909 16.2633 17.8581 16.7305 18.4344 16.7305C19.0107 16.7305 19.4779 16.2633 19.4779 15.687V10.8174H17.3909Z" fill="#FFF3AD"/>
<path d="M20.8692 15.687V17.7739C20.8692 18.3502 21.3364 18.8174 21.9127 18.8174C22.489 18.8174 22.9562 18.3502 22.9562 17.7739V15.687H20.8692Z" fill="#FFD23E"/>
<path d="M14.6084 10.8174V16.7305C14.6084 17.3068 14.1412 17.774 13.5649 17.774C12.9886 17.774 12.5214 17.3068 12.5214 16.7305V10.8174H14.6084Z" fill="white"/>
<path d="M11.1301 10.8174V13.6001C11.1301 14.1763 10.6629 14.6436 10.0866 14.6436C9.51025 14.6436 9.04306 14.1764 9.04306 13.6001V10.8174H11.1301Z" fill="white"/>
<path d="M7.65182 11.5131V13.6001C7.65182 14.1763 7.18463 14.6436 6.60832 14.6436C6.03201 14.6436 5.56482 14.1764 5.56482 13.6001V11.5131H7.65182Z" fill="#FFE376"/>
<path d="M23.6522 12.5565H22.2609V13.9478H23.6522V12.5565Z" fill="#F72E12"/>
</g>
<defs>
<clipPath id="clip0_1301_2">
<rect width="32" height="32" fill="white"/>
</clipPath>
</defs>
</svg>
