<svg class="svg-icon" style="width: 1em; height: 1em;vertical-align: middle;fill: rgb(229, 231, 235);overflow: hidden;"
     viewBox="0 0 1024 1024" version="1.1" xmlns="http://www.w3.org/2000/svg">
    <path d="M469.9136 685.294933l-161.604267-102.0416c-25.719467-17.629867-102.1952-18.824533-132.113066 11.076267a17.066667 17.066667 0 0 0 24.132266 24.132267c16.9984-16.964267 76.0832-15.701333 89.224534-6.690134L443.733333 709.137067v198.178133c-27.8528 4.642133-94.839467 14.2848-170.666666 14.2848H85.333333a17.083733 17.083733 0 0 1 0-34.133333 17.066667 17.066667 0 1 0 0-34.133334H68.266667a17.083733 17.083733 0 0 1 0-34.133333 17.066667 17.066667 0 1 0 0-34.133333H51.2a17.083733 17.083733 0 0 1 0-34.133334h17.066667a17.066667 17.066667 0 1 0 0-34.133333 17.083733 17.083733 0 0 1 0-34.133333h204.8a17.066667 17.066667 0 1 0 0-34.133334H68.266667c-28.228267 0-51.2 22.971733-51.2 51.2 0 9.130667 2.4064 17.698133 6.6048 25.122134A51.217067 51.217067 0 0 0 0 768c0 18.090667 9.454933 34.048 23.671467 43.144533a51.217067 51.217067 0 0 0 17.066666 68.266667A50.858667 50.858667 0 0 0 34.133333 904.533333c0 22.2208 14.318933 40.977067 34.133334 48.042667V1006.933333a17.066667 17.066667 0 1 0 34.133333 0v-51.2h170.666667c24.046933 0 47.018667-0.938667 68.266666-2.338133V1006.933333a17.066667 17.066667 0 1 0 34.133334 0v-56.302933c51.490133-4.9664 86.442667-11.844267 88.6784-12.305067A17.066667 17.066667 0 0 0 477.866667 921.6V699.733333c0-5.853867-3.003733-11.298133-7.953067-14.4384M597.333333 921.6h-51.2V682.666667h17.066667a17.066667 17.066667 0 1 0 0-34.133334h-34.133333a17.066667 17.066667 0 0 0-17.066667 17.066667v273.066667a17.066667 17.066667 0 0 0 17.066667 17.066666h68.266666a17.066667 17.066667 0 1 0 0-34.133333M665.6 443.733333a17.066667 17.066667 0 0 0-17.066667 17.066667v34.133333a17.066667 17.066667 0 0 0 17.066667 17.066667h273.066667a17.066667 17.066667 0 0 0 17.066666-17.066667v-68.266666a17.066667 17.066667 0 1 0-34.133333 0v51.2H682.666667v-17.066667a17.066667 17.066667 0 0 0-17.066667-17.066667"
          fill="#rgb(229, 231, 235)"/>
    <path d="M1024 665.6a17.066667 17.066667 0 0 0-17.066667-17.066667h-56.302933c-4.9664-51.490133-11.844267-86.4256-12.305067-88.6784A17.032533 17.032533 0 0 0 921.6 546.133333H699.733333c-5.853867 0-11.298133 3.003733-14.4384 7.953067l-102.0416 161.604267c-17.646933 25.719467-18.8416 102.1952 11.076267 132.113066a17.066667 17.066667 0 0 0 24.132267-24.132266c-16.964267-16.981333-15.7184-76.066133-6.690134-89.224534L709.137067 580.266667h198.161066c4.6592 27.8528 14.301867 94.839467 14.301867 170.666666v187.733334a17.083733 17.083733 0 0 1-34.133333 0 17.066667 17.066667 0 1 0-34.133334 0v17.066666a17.083733 17.083733 0 0 1-34.133333 0 17.066667 17.066667 0 1 0-34.133333 0v17.066667a17.083733 17.083733 0 0 1-34.133334 0v-17.066667a17.066667 17.066667 0 1 0-34.133333 0 17.083733 17.083733 0 0 1-34.133333 0V750.933333a17.066667 17.066667 0 1 0-34.133334 0v204.8c0 28.228267 22.971733 51.2 51.2 51.2 9.1136 0 17.698133-2.4064 25.122134-6.6048A51.2 51.2 0 0 0 768 1024a51.2 51.2 0 0 0 43.144533-23.671467 51.2 51.2 0 0 0 68.266667-17.066666c7.424 4.1984 16.008533 6.6048 25.122133 6.6048a51.080533 51.080533 0 0 0 48.042667-34.133334H1006.933333a17.066667 17.066667 0 1 0 0-34.133333h-51.2V750.933333c0-24.046933-0.938667-47.018667-2.338133-68.266666H1006.933333a17.066667 17.066667 0 0 0 17.066667-17.066667M554.0864 338.705067l161.604267 102.0416c11.502933 7.8848 33.160533 12.4928 56.251733 12.4928 28.552533 0 59.323733-7.031467 75.861333-23.569067a17.066667 17.066667 0 0 0-24.132266-24.132267c-16.964267 16.9984-76.066133 15.7184-89.224534 6.690134L580.266667 314.862933V116.6848C608.119467 112.042667 675.106133 102.4 750.933333 102.4h187.733334a17.083733 17.083733 0 0 1 0 34.133333 17.066667 17.066667 0 1 0 0 34.133334h17.066666a17.083733 17.083733 0 0 1 0 34.133333 17.066667 17.066667 0 1 0 0 34.133333h17.066667a17.083733 17.083733 0 0 1 0 34.133334h-17.066667a17.066667 17.066667 0 1 0 0 34.133333 17.083733 17.083733 0 0 1 0 34.133333H750.933333a17.066667 17.066667 0 1 0 0 34.133334h204.8c28.228267 0 51.2-22.971733 51.2-51.2a50.858667 50.858667 0 0 0-6.6048-25.122134A51.217067 51.217067 0 0 0 1024 256a51.2 51.2 0 0 0-23.671467-43.144533 51.2 51.2 0 0 0-17.066666-68.266667A50.858667 50.858667 0 0 0 989.866667 119.466667a51.1488 51.1488 0 0 0-34.133334-48.059734V17.066667a17.066667 17.066667 0 1 0-34.133333 0v51.2H750.933333c-24.046933 0-47.018667 0.938667-68.266666 2.338133V17.066667a17.066667 17.066667 0 1 0-34.133334 0v56.302933c-51.490133 4.9664-86.442667 11.844267-88.6784 12.288A17.083733 17.083733 0 0 0 546.133333 102.4v221.866667c0 5.853867 3.003733 11.298133 7.953067 14.4384M512 85.333333a17.066667 17.066667 0 0 0-17.066667-17.066666h-68.266666a17.066667 17.066667 0 1 0 0 34.133333h51.2v238.933333h-17.066667a17.066667 17.066667 0 1 0 0 34.133334h34.133333a17.066667 17.066667 0 0 0 17.066667-17.066667V85.333333M358.4 580.266667a17.066667 17.066667 0 0 0 17.066667-17.066667v-34.133333a17.066667 17.066667 0 0 0-17.066667-17.066667H85.333333a17.066667 17.066667 0 0 0-17.066666 17.066667v68.266666a17.066667 17.066667 0 1 0 34.133333 0v-51.2h238.933333v17.066667a17.066667 17.066667 0 0 0 17.066667 17.066667"
          fill="#rgb(229, 231, 235)"/>
    <path d="M0 358.4a17.066667 17.066667 0 0 0 17.066667 17.066667h56.302933c4.9664 51.490133 11.844267 86.4256 12.288 88.6784A17.066667 17.066667 0 0 0 102.4 477.866667h221.866667c5.853867 0 11.298133-3.003733 14.4384-7.953067l102.0416-161.604267c17.646933-25.719467 18.8416-102.1952-11.076267-132.113066a17.066667 17.066667 0 0 0-24.132267 24.132266c16.964267 16.981333 15.7184 76.066133 6.690134 89.224534L314.862933 443.733333H116.701867C112.042667 415.880533 102.4 348.893867 102.4 273.066667V85.333333a17.083733 17.083733 0 0 1 34.133333 0 17.066667 17.066667 0 1 0 34.133334 0V68.266667a17.083733 17.083733 0 0 1 34.133333 0 17.066667 17.066667 0 1 0 34.133333 0V51.2a17.083733 17.083733 0 0 1 34.133334 0v17.066667a17.066667 17.066667 0 1 0 34.133333 0 17.083733 17.083733 0 0 1 34.133333 0v204.8a17.066667 17.066667 0 1 0 34.133334 0V68.266667c0-28.228267-22.971733-51.2-51.2-51.2-9.1136 0-17.698133 2.4064-25.122134 6.6048A51.2 51.2 0 0 0 256 0a51.2 51.2 0 0 0-43.144533 23.671467 51.182933 51.182933 0 0 0-68.266667 17.066666A50.926933 50.926933 0 0 0 119.466667 34.133333a51.080533 51.080533 0 0 0-48.042667 34.133334H17.066667a17.066667 17.066667 0 1 0 0 34.133333h51.2v170.666667c0 24.046933 0.938667 47.018667 2.338133 68.266666H17.066667a17.066667 17.066667 0 0 0-17.066667 17.066667"
          fill="#rgb(229, 231, 235)"/>
</svg>